{"title":"Final.Destination.5.2011.CAMRip","uid":6606317,"size":471042318,"categoryP":"video","categoryS":"movies","magnet":"?xt=urn:btih:273fa12ca0ae1cdccac5cf7f4b2831223708eaef&amp;dn=Final.Destination.5.2011.CAMRip&amp;tr=udp%3A%2F%2Ftracker.openbittorrent.com%3A80&amp;tr=udp%3A%2F%2Fopen.demonii.com%3A1337&amp;tr=udp%3A%2F%2Ftracker.coppersurfer.tk%3A6969&amp;tr=udp%3A%2F%2Fexodus.desync.com%3A6969","seeders":0,"leechers":0,"uploader":"musicnew322222","files":2,"time":1313367731,"description":" &lt;a href=&quot;http://www.imdb.com/title/tt1622979/&quot; rel=&quot;nofollow&quot; target=&quot;_NEW&quot;&gt;http://www.imdb.com/title/tt1622979/&lt;/a&gt;\n\n\n\n\nGeneral\nComplete name                    : Final Destination 5 - Cam Rip - 2011\nFormat                           : MPEG-4\nFormat profile                   : Base Media\nCodec ID                         : isom\nFile size                        : 1.13 GiB\nDuration                         : 1h 27mn\nOverall bit rate                 : 1 861 Kbps\n \nVideo\nID                               : 1\nFormat                           : MPEG-4 Visual\nFormat profile                   : Simple@L3\nFormat settings, BVOP            : No\nFormat settings, QPel            : No\nFormat settings, GMC             : No warppoints\nFormat settings, Matrix          : Default (H.263)\nCodec ID                         : 20\nDuration                         : 1h 27mn\nBit rate                         : 1 792 Kbps\nWidth                            : 720 pixels\nHeight                           : 480 pixels\nDisplay aspect ratio             : 4:3\nOriginal display aspect ratio    : 3:2\nFrame rate mode                  : Constant\nFrame rate                       : 29.970 fps\nStandard                         : NTSC\nColor space                      : YUV\nChroma subsampling               : 4:2:0\nBit depth                        : 8 bits\nScan type                        : Progressive\nCompression mode                 : Lossy\nBits/(Pixel*Frame)               : 0.173\nStream size                      : 1.09 GiB (96%)\nMaterial_Duration                : 5224786\nMaterial_StreamSize              : 1170404687\nMaterial_FrameCount              : 156587\n \nAudio\nID                               : 2\nFormat                           : AAC\nFormat/Info                      : Advanced Audio Codec\nFormat profile                   : LC\nCodec ID                         : 40\nDuration                         : 1h 27mn\nBit rate mode                    : Variable\nBit rate                         : 64.0 Kbps\nChannel(s)                       : 2 channels\nChannel positions                : Front: L R\nSampling rate                    : 44.1 KHz\nCompression mode                 : Lossy\nStream size                      : 39.9 MiB (3%)\nMaterial_Duration                : 5224745\nMaterial_StreamSize              : 41795687","torrent":{"xt":"urn:btih:273fa12ca0ae1cdccac5cf7f4b2831223708eaef","amp;dn":"Final.Destination.5.2011.CAMRip","amp;tr":["udp%3A%2F%2Ftracker.openbittorrent.com%3A80","udp%3A%2F%2Fopen.demonii.com%3A1337","udp%3A%2F%2Ftracker.coppersurfer.tk%3A6969","udp%3A%2F%2Fexodus.desync.com%3A6969"],"infoHash":"273fa12ca0ae1cdccac5cf7f4b2831223708eaef","infoHashBuffer":{"type":"Buffer","data":[39,63,161,44,160,174,28,220,202,197,207,127,75,40,49,34,55,8,234,239]},"announce":[],"urlList":[]}}